<!DOCTYPE svg PUBLIC "-//W3C//DTD SVG 1.1//EN" "http://www.w3.org/Graphics/SVG/1.1/DTD/svg11.dtd">
<!-- Uploaded to: SVG Repo, www.svgrepo.com, Transformed by: SVG Repo Mixer Tools -->
<svg version="1.1" id="Uploaded to svgrepo.com" xmlns="http://www.w3.org/2000/svg" xmlns:xlink="http://www.w3.org/1999/xlink" width="64px" height="64px" viewBox="0 0 32 32" xml:space="preserve" fill="#000000">
<g id="SVGRepo_bgCarrier" stroke-width="0"/>
<g id="SVGRepo_tracerCarrier" stroke-linecap="round" stroke-linejoin="round" stroke="#000000" stroke-width="2.112"> <style type="text/css"> .feather_een{fill:#000000;} </style> <path class="feather_een" d="M19.5,12.5c0,0.276-0.224,0.5-0.5,0.5h-6c-0.276,0-0.5-0.224-0.5-0.5S12.724,12,13,12h6 C19.276,12,19.5,12.224,19.5,12.5z M19.5,14.5c0,0.276-0.224,0.5-0.5,0.5h-6c-0.276,0-0.5-0.224-0.5-0.5S12.724,14,13,14h6 C19.276,14,19.5,14.224,19.5,14.5z M19.5,16.5c0,0.276-0.224,0.5-0.5,0.5h-6c-0.276,0-0.5-0.224-0.5-0.5S12.724,16,13,16h6 C19.276,16,19.5,16.224,19.5,16.5z M27,5h-7c0-1.657-1.343-3-3-3h-2c-1.657,0-3,1.343-3,3H5C3.343,5,2,6.343,2,8v13 c0,1.657,1.343,3,3,3h6.117l-2.546,4.243c-0.143,0.237-0.065,0.544,0.172,0.686C8.823,28.977,8.912,29,9,29 c0.169,0,0.335-0.086,0.429-0.243L12.283,24H15.5v4.5c0,0.276,0.224,0.5,0.5,0.5s0.5-0.224,0.5-0.5V24h3.217l2.854,4.757 C22.665,28.914,22.831,29,23,29c0.088,0,0.177-0.023,0.257-0.071c0.237-0.142,0.314-0.449,0.172-0.686L20.883,24H27 c1.657,0,3-1.343,3-3V8C30,6.343,28.657,5,27,5z M13,5c0-1.103,0.897-2,2-2h2c1.103,0,2,0.897,2,2v1h-6V5z M29,21 c0,1.103-0.897,2-2,2H5c-1.103,0-2-0.897-2-2V8c0-1.103,0.897-2,2-2h7c0,0.552,0.448,1,1,1h6c0.552,0,1-0.448,1-1h7 c1.103,0,2,0.897,2,2V21z"/> </g>
<g id="SVGRepo_iconCarrier"> <style type="text/css"> .feather_een{fill:#000000;} </style> <path class="feather_een" d="M19.5,12.5c0,0.276-0.224,0.5-0.5,0.5h-6c-0.276,0-0.5-0.224-0.5-0.5S12.724,12,13,12h6 C19.276,12,19.5,12.224,19.5,12.5z M19.5,14.5c0,0.276-0.224,0.5-0.5,0.5h-6c-0.276,0-0.5-0.224-0.5-0.5S12.724,14,13,14h6 C19.276,14,19.5,14.224,19.5,14.5z M19.5,16.5c0,0.276-0.224,0.5-0.5,0.5h-6c-0.276,0-0.5-0.224-0.5-0.5S12.724,16,13,16h6 C19.276,16,19.5,16.224,19.5,16.5z M27,5h-7c0-1.657-1.343-3-3-3h-2c-1.657,0-3,1.343-3,3H5C3.343,5,2,6.343,2,8v13 c0,1.657,1.343,3,3,3h6.117l-2.546,4.243c-0.143,0.237-0.065,0.544,0.172,0.686C8.823,28.977,8.912,29,9,29 c0.169,0,0.335-0.086,0.429-0.243L12.283,24H15.5v4.5c0,0.276,0.224,0.5,0.5,0.5s0.5-0.224,0.5-0.5V24h3.217l2.854,4.757 C22.665,28.914,22.831,29,23,29c0.088,0,0.177-0.023,0.257-0.071c0.237-0.142,0.314-0.449,0.172-0.686L20.883,24H27 c1.657,0,3-1.343,3-3V8C30,6.343,28.657,5,27,5z M13,5c0-1.103,0.897-2,2-2h2c1.103,0,2,0.897,2,2v1h-6V5z M29,21 c0,1.103-0.897,2-2,2H5c-1.103,0-2-0.897-2-2V8c0-1.103,0.897-2,2-2h7c0,0.552,0.448,1,1,1h6c0.552,0,1-0.448,1-1h7 c1.103,0,2,0.897,2,2V21z"/> </g>
</svg>