<!DOCTYPE svg PUBLIC "-//W3C//DTD SVG 1.1//EN" "http://www.w3.org/Graphics/SVG/1.1/DTD/svg11.dtd">
<!-- Uploaded to: SVG Repo, www.svgrepo.com, Transformed by: SVG Repo Mixer Tools -->
<svg fill="#000000" version="1.1" id="Capa_1" xmlns="http://www.w3.org/2000/svg" xmlns:xlink="http://www.w3.org/1999/xlink" width="64px" height="64px" viewBox="0 0 190.163 190.163" xml:space="preserve">
<g id="SVGRepo_bgCarrier" stroke-width="0"/>
<g id="SVGRepo_tracerCarrier" stroke-linecap="round" stroke-linejoin="round"/>
<g id="SVGRepo_iconCarrier"> <g> <g> <path d="M152.109,14.012c-3.008-5.155-8.031-7.684-13.147-7.489c-7.559-2.172-14.561,2.503-17.28,9.724 c-3.1,8.234-0.31,16.185,6.51,21.44c6.491,5.003,15.41,2.816,21.013-2.286C155.293,29.856,156.144,20.93,152.109,14.012z"/> <path d="M176.196,89.213c-2.278-0.292-4.648-0.119-7.032,0.174c1.918-6.882,0.66-19.186,0.55-22.173 c-0.462-12.635-6.606-23.332-19.97-24.576c-12.796-1.192-29.757-0.149-38.333,10.857c-7.351,9.432-5.916,24.611-2.827,35.546 c-4.226-0.03-8.445,0.06-12.642,0.399c-2.976,0.24-2.953,4.333,0,4.604c4.282,0.393,8.58,0.721,12.884,1.02 c-0.706,6.528-0.976,12.912,0.226,19.402c0.242,1.311,1.581,2.042,2.789,2.123c16.176,1.09,32.332-3.886,48.385-0.646 c1.483,0.299,3.594-0.411,3.83-2.175c0.536-3.986,2.434-12.704,0.139-17.107c4.566-0.15,9.612-0.511,13.276-2.738 C179.805,92.504,178.562,89.519,176.196,89.213z M116.028,89.228c-0.168-7.004,0.097-13.872,3.103-20.17 c0.129,0.024,0.259,0.041,0.389,0.063c-0.027,1.225-0.037,2.438-0.09,3.595c-0.248,5.514,0.031,11.152,0.425,16.687 C118.579,89.343,117.304,89.274,116.028,89.228z M158.129,89.946c-0.033,0.19-0.101,0.374-0.177,0.551 c-2.049,0.067-4.102,0.083-6.153,0.079c-0.099-3.649-0.26-7.297-0.355-10.947c-0.088-3.298,0.568-6.841,0.785-10.23 c0.79-0.038,1.59-0.088,2.375-0.119c0.783,1.989,1.444,3.984,1.985,5.871c0.988,3.444,1.532,7,1.726,10.572 C158.391,87.121,158.368,88.563,158.129,89.946z"/> <path d="M104.33,41.885c-0.947-6.589-6.351-12.682-12.937-12.372C89.085,5.404,61.897-2.635,41.128,0.73 C20.986,3.994-1.263,21.931,9.247,44.646c8.381,18.114,33.359,20.274,50.649,18.186c10.096-1.219,32.133-6.819,29.819-20.298 c0.871,0.206,1.756,0.336,2.474,0.503c3.034,0.704,6.094,1.309,9.166,1.823C103.303,45.186,104.604,43.795,104.33,41.885z M78.985,47.176c0.443-0.352,0.891-0.688,1.323-1.07c0.073-0.032,0.145-0.064,0.218-0.095c-0.439,0.792-1.012,1.491-1.693,2.103 C78.919,47.784,78.97,47.471,78.985,47.176z"/> <path d="M34.012,157.514c2.51-0.64,4.85-1.932,6.775-4.04c4.439-4.866,5.113-12.572,2.857-18.55 c-1.559-4.133-4.128-6.773-7.119-8.176c-0.137-0.654-0.57-1.215-1.377-1.354c-8.726-1.499-17.223,1.796-21.803,9.551 c-4.599,7.788-0.738,16.023,6.544,20.209c1.211,0.696,2.494,1.278,3.813,1.733c-9.771,3.25-14.948,17.715-13.774,27.314 c-3.381,0.721-3.256,6.235,0.459,5.95c11.625-0.893,23.285-0.867,34.855-2.441c1.196-0.163,2.274-1.679,2.166-2.846 C46.501,174.997,43.66,161.653,34.012,157.514z M39.094,182.452c0.02-0.073,0.044-0.145,0.058-0.219 c0.795-0.013,1.489-0.374,1.972-0.926c0.042,0.324,0.087,0.655,0.123,0.965C40.53,182.346,39.811,182.387,39.094,182.452z"/> <path d="M77.696,157.648c5.798-1.723,10.68-6.46,12.794-12.029c3.015-7.941-2.229-19.157-11.127-20.003 c-1.589-0.151-3.139-0.021-4.628,0.311c-8.387,0.568-17.018,6.013-17.716,15.054c-0.607,7.855,4.322,14.612,11.437,16.696 c-8.942,3.841-14.732,19.428-10.82,27.447c-0.232,1.578,0.948,3.382,2.721,3.265c4.73-0.312,9.142-1.136,13.979-0.978 c4.986,0.162,9.892,0.379,14.84-0.379c1.224-0.188,2.341-1.708,2.225-2.922C90.489,174.612,87.382,161.088,77.696,157.648z"/> <path d="M125.501,157.448c5.527-2.114,9.175-9.11,9.588-15.735c0.302-4.842-1.138-10.26-4.892-13.534 c-4.528-3.948-11.776-3.452-16.378,0.059c-2.29,1.747-3.843,4.167-4.654,6.822c-0.362,0.648-0.7,1.315-0.991,2.011 c-3.203,7.646,0.718,14.797,7.234,18.892c0.248,0.156,0.493,0.293,0.737,0.431c-11.74,2.135-14.48,19.429-12.328,29.014 c0.267,1.188,1.395,1.592,2.388,1.385c0.08,0.163,0.176,0.317,0.299,0.449c1.682,2.259,7.089,1.053,9.1,0.913 c6.051-0.419,12.126-0.915,18.192-1.002c1.548-0.022,3.192-1.373,3.045-3.045C136.001,174.543,134.281,161.597,125.501,157.448z M128.664,136.908c0.198,0.734,0.284,1.459,0.28,2.166c-0.392-1.771-1.091-3.437-2.018-4.688 C127.718,134.867,128.33,135.669,128.664,136.908z"/> <path d="M172.504,159.617c-0.237-0.156-0.475-0.28-0.713-0.418c7.56-2.467,11.642-12.548,10.325-20.711 c-0.863-5.343-3.899-9.963-9.188-11.684c-6.979-2.27-15.247,2.228-18.563,8.303c-0.955,1.75-1.482,3.597-1.66,5.446 c-2.898,7.848,1.979,14.36,8.854,17.55c-9.75,3.294-16.758,17.915-11.032,27.007c0.079,1.425,1.054,2.78,2.955,2.83 c8.63,0.225,20.958,4.104,27.485-3.584C187.958,176.122,179.669,164.337,172.504,159.617z"/> </g> </g> </g>
</svg>