<!DOCTYPE svg PUBLIC "-//W3C//DTD SVG 1.1//EN" "http://www.w3.org/Graphics/SVG/1.1/DTD/svg11.dtd">
<!-- Uploaded to: SVG Repo, www.svgrepo.com, Transformed by: SVG Repo Mixer Tools -->
<svg fill="#000000" width="64px" height="64px" viewBox="0 0 32 32" version="1.1" xmlns="http://www.w3.org/2000/svg" stroke="#000000" stroke-width="0.032">
<g id="SVGRepo_bgCarrier" stroke-width="0"/>
<g id="SVGRepo_tracerCarrier" stroke-linecap="round" stroke-linejoin="round"/>
<g id="SVGRepo_iconCarrier"> <title>school</title> <path d="M30 20.75h-5.75v-7.596l5.129 2.931c0.178 0.104 0.393 0.165 0.621 0.165 0.69 0 1.25-0.56 1.25-1.25 0-0.462-0.251-0.865-0.623-1.082l-0.006-0.003-12.932-7.389c0.373-0.014 0.728-0.064 1.070-0.148l-0.036 0.007c0.291-0.057 0.626-0.089 0.969-0.089 0.363 0 0.717 0.036 1.059 0.106l-0.034-0.006c0.061 0.011 0.131 0.017 0.203 0.017 0.69 0 1.25-0.56 1.25-1.25v0-2.812c0-0 0-0 0-0 0-0.592-0.412-1.088-0.964-1.217l-0.008-0.002c-0.453-0.117-0.973-0.185-1.509-0.185-0.541 0-1.067 0.069-1.568 0.198l0.043-0.010c-0.254 0.059-0.546 0.093-0.845 0.093-0.13 0-0.259-0.006-0.386-0.019l0.016 0.001c-0.225-0.28-0.566-0.459-0.948-0.463h-0.001c-0.69 0-1.25 0.56-1.25 1.25v0 4.275l-13.37 7.64c-0.379 0.219-0.63 0.623-0.63 1.085 0 0.69 0.56 1.25 1.25 1.25 0.228 0 0.442-0.061 0.626-0.168l-0.006 0.003 5.13-2.931v7.596h-5.75c-0.69 0-1.25 0.56-1.25 1.25v8c0 0.69 0.56 1.25 1.25 1.25h28c0.69-0.001 1.249-0.56 1.25-1.25v-8c-0.001-0.69-0.56-1.249-1.25-1.25h-0zM18.791 3.557c0.246-0.069 0.528-0.109 0.819-0.109 0.021 0 0.042 0 0.063 0.001l-0.003-0v0.352c-0.555 0.010-1.090 0.068-1.608 0.171l0.058-0.009c-0.258 0.076-0.554 0.119-0.86 0.119-0.001 0-0.002 0-0.003 0h-0.007v-0.336c0.547-0 1.078-0.069 1.586-0.197l-0.045 0.010zM3.25 23.25h4.5v5.5h-4.5zM10.25 22v-10.275l5.75-3.286 5.75 3.286v17.025h-1.5v-4.75c-0.001-0.69-0.56-1.249-1.25-1.25h-6c-0.69 0-1.25 0.56-1.25 1.25v4.75h-1.5zM14.25 28.75v-3.5h3.5v3.5zM28.75 28.75h-4.5v-5.5h4.5zM16 20.25c2.347 0 4.25-1.903 4.25-4.25s-1.903-4.25-4.25-4.25c-2.347 0-4.25 1.903-4.25 4.25v0c0.002 2.346 1.904 4.247 4.25 4.25h0zM16 14.25c0.966 0 1.75 0.784 1.75 1.75s-0.784 1.75-1.75 1.75c-0.966 0-1.75-0.784-1.75-1.75v0c0.001-0.966 0.784-1.749 1.75-1.75h0z"/> </g>
</svg>