<!DOCTYPE svg PUBLIC "-//W3C//DTD SVG 1.1//EN" "http://www.w3.org/Graphics/SVG/1.1/DTD/svg11.dtd">
<!-- Uploaded to: SVG Repo, www.svgrepo.com, Transformed by: SVG Repo Mixer Tools -->
<svg width="64px" height="64px" viewBox="0 0 1024 1024" class="icon" version="1.1" xmlns="http://www.w3.org/2000/svg" fill="#000000">
<g id="SVGRepo_bgCarrier" stroke-width="0"/>
<g id="SVGRepo_tracerCarrier" stroke-linecap="round" stroke-linejoin="round" stroke="#000000" stroke-width="22.528">
<path d="M919.232 905.792h-114.56v-51.008h-52.48v78.336c0 1.344 0 3.2 0.512 4.48 2.24 13.44 12.544 21.056 23.68 22.4h142.848c14.784 0 26.88-12.096 26.88-26.88a27.328 27.328 0 0 0-26.88-27.328z m-97.152-184.448c-4.928-23.296-17.92-35.84-28.16-41.6-24.256-14.848-52.864-8.128-56-7.232l-2.688 0.896-2.24 1.344c-25.536 13.888-56.448 29.568-72.96 35.84-1.856-4.48-3.648-9.856-5.44-14.72-3.584-10.368-8.064-22.912-13.44-35.84-1.728-8.96-7.104-29.568-25.92-82.88 9.856 15.232 20.16 30.016 30.848 44.8 8.064 13.44 21.12 23.232 36.288 27.264 15.68 4.48 32.256 2.24 46.592-5.76a61.248 61.248 0 0 0 22.848-83.328c-1.792-3.584-4.032-7.168-6.72-11.648-35.84-63.104-77.056-132.096-115.072-150.912l-0.896-0.448a287.744 287.744 0 0 0-175.552-17.408c-51.52 12.032-88.64 56.832-108.352 80.576l-5.824 7.168c-12.16-0.896-42.112-8.064-69.44-17.024a175.488 175.488 0 0 0-42.496-4.032V120.896c0-0.896 0.448-1.344 1.28-1.344h519.936c0.896 0 1.28 0.896 1.28 1.28v387.84h53.76v-387.84c0-31.36-24.64-56.832-55.04-56.832H229.248a56.128 56.128 0 0 0-55.552 56.896v784.896H90.88c-14.784 0-26.88 12.16-26.88 26.88 0 14.784 12.096 26.88 26.88 26.88h110.08c14.848 0 26.88-12.096 26.88-26.88v-1.792c0-1.28-0.384-2.688-0.384-4.032V565.12l4.032 1.344 0.896 0.896 6.272 1.344c0.896 0 98.048 21.056 124.032 27.776 25.472 6.72 48.32-11.648 65.792-29.12 4.48 12.992 9.856 27.328 14.784 40.768a403.456 403.456 0 0 0-37.12 11.2c-49.28 17.024-60.928 29.504-64.064 43.392-2.688 12.16-30.016 125.44-44.352 184.96a56.192 56.192 0 0 0 0.896 43.904c7.68 16.96 23.744 28.608 47.04 34.88 8.512 2.24 16.576 3.584 24.192 3.584a56.384 56.384 0 0 0 33.536-10.24c17.024-12.608 21.12-31.36 22.4-39.04 11.2-42.496 28.672-107.456 34.944-128.896 12.544-4.48 40.32-9.856 53.248-10.304 4.032 7.168 10.304 21.056 15.232 31.744 23.744 51.52 41.216 86.016 68.48 92.736 45.248 11.2 142.016-43.456 174.72-63.168 25.92-8.064 59.52-35.328 49.664-81.472z m-68.032 40.32l-2.688 1.792c-53.312 32.192-122.688 63.552-142.848 59.52-10.752-6.272-29.568-47.488-38.976-67.584-15.68-34.56-23.68-51.968-39.872-56.448-13.44-3.584-38.016 0-56.384 4.032-43.008 8.96-49.728 17.92-53.312 26.88-3.136 8.064-28.16 102.08-38.464 141.952l-0.448 2.24v2.24s-0.896 5.76-4.032 8.064c-3.2 2.24-10.752 2.24-19.712 0-9.408-2.688-16.128-6.272-17.92-10.304a11.776 11.776 0 0 1 0-8.96l0.896-1.344 0.448-2.688c1.792-6.72 36.736-150.464 43.84-183.168 15.232-10.752 74.816-29.12 88.256-29.568h31.36l-9.856-29.504a2704.128 2704.128 0 0 0-25.088-70.784 481.28 481.28 0 0 1-9.856-27.776l-6.272-18.304-19.712 3.136c-9.856 2.24-16.128 8.96-26.88 20.096-6.272 6.72-24.576 26.88-32.192 27.328-23.744-6.272-97.216-21.952-119.552-26.88l-6.272-1.28c-2.24-0.512-13.888-4.48-17.92-11.264-0.896-1.28-2.688-3.968-0.448-11.136 1.792-7.168 4.928-8.96 5.76-9.408 5.888-3.2 15.744-1.344 20.16 0 87.808 29.056 101.248 18.816 108.416 13.44 4.48-3.584 8.96-8.96 15.68-17.024 16.512-19.712 47.424-56.896 83.2-64.96a242.88 242.88 0 0 1 147.84 14.784c28.672 14.336 76.992 99.84 95.36 132.544 2.688 4.48 4.928 8.512 6.72 12.096 4.48 7.616 1.792 17.92-6.272 22.4a15.168 15.168 0 0 1-12.544 1.28 18.56 18.56 0 0 1-9.856-7.552l-1.28-2.24c-22.4-30.912-43.52-63.168-62.72-96.256-14.336-24.64-36.736-34.56-56-24.192-16.128 8.512-19.712 24.192 0.448 91.776l0.448 1.344c14.336 39.872 30.464 87.744 32.256 98.048v4.032l2.24 4.48c5.376 11.648 9.408 23.744 12.992 34.496 7.168 21.504 12.544 37.12 26.432 44.352 9.792 5.376 20.544 11.2 112.832-39.424a31.36 31.36 0 0 1 18.752 2.24c1.344 0.896 5.376 3.584 7.68 12.992 4.48 20.608-13.44 27.776-21.12 29.568l-3.52 0.896zM325.504 253.44a97.152 97.152 0 0 0 93.568 122.24c43.008 0 82.432-28.672 93.568-72.128A97.472 97.472 0 0 0 444.16 184.96a96.896 96.896 0 0 0-118.656 68.48z m143.744 38.464a52.224 52.224 0 0 1-95.36 12.992 52.032 52.032 0 0 1 58.24-76.544c28.16 7.168 44.736 35.84 37.12 63.552z" fill="#000000"/>
</g>
<g id="SVGRepo_iconCarrier">
<path d="M919.232 905.792h-114.56v-51.008h-52.48v78.336c0 1.344 0 3.2 0.512 4.48 2.24 13.44 12.544 21.056 23.68 22.4h142.848c14.784 0 26.88-12.096 26.88-26.88a27.328 27.328 0 0 0-26.88-27.328z m-97.152-184.448c-4.928-23.296-17.92-35.84-28.16-41.6-24.256-14.848-52.864-8.128-56-7.232l-2.688 0.896-2.24 1.344c-25.536 13.888-56.448 29.568-72.96 35.84-1.856-4.48-3.648-9.856-5.44-14.72-3.584-10.368-8.064-22.912-13.44-35.84-1.728-8.96-7.104-29.568-25.92-82.88 9.856 15.232 20.16 30.016 30.848 44.8 8.064 13.44 21.12 23.232 36.288 27.264 15.68 4.48 32.256 2.24 46.592-5.76a61.248 61.248 0 0 0 22.848-83.328c-1.792-3.584-4.032-7.168-6.72-11.648-35.84-63.104-77.056-132.096-115.072-150.912l-0.896-0.448a287.744 287.744 0 0 0-175.552-17.408c-51.52 12.032-88.64 56.832-108.352 80.576l-5.824 7.168c-12.16-0.896-42.112-8.064-69.44-17.024a175.488 175.488 0 0 0-42.496-4.032V120.896c0-0.896 0.448-1.344 1.28-1.344h519.936c0.896 0 1.28 0.896 1.28 1.28v387.84h53.76v-387.84c0-31.36-24.64-56.832-55.04-56.832H229.248a56.128 56.128 0 0 0-55.552 56.896v784.896H90.88c-14.784 0-26.88 12.16-26.88 26.88 0 14.784 12.096 26.88 26.88 26.88h110.08c14.848 0 26.88-12.096 26.88-26.88v-1.792c0-1.28-0.384-2.688-0.384-4.032V565.12l4.032 1.344 0.896 0.896 6.272 1.344c0.896 0 98.048 21.056 124.032 27.776 25.472 6.72 48.32-11.648 65.792-29.12 4.48 12.992 9.856 27.328 14.784 40.768a403.456 403.456 0 0 0-37.12 11.2c-49.28 17.024-60.928 29.504-64.064 43.392-2.688 12.16-30.016 125.44-44.352 184.96a56.192 56.192 0 0 0 0.896 43.904c7.68 16.96 23.744 28.608 47.04 34.88 8.512 2.24 16.576 3.584 24.192 3.584a56.384 56.384 0 0 0 33.536-10.24c17.024-12.608 21.12-31.36 22.4-39.04 11.2-42.496 28.672-107.456 34.944-128.896 12.544-4.48 40.32-9.856 53.248-10.304 4.032 7.168 10.304 21.056 15.232 31.744 23.744 51.52 41.216 86.016 68.48 92.736 45.248 11.2 142.016-43.456 174.72-63.168 25.92-8.064 59.52-35.328 49.664-81.472z m-68.032 40.32l-2.688 1.792c-53.312 32.192-122.688 63.552-142.848 59.52-10.752-6.272-29.568-47.488-38.976-67.584-15.68-34.56-23.68-51.968-39.872-56.448-13.44-3.584-38.016 0-56.384 4.032-43.008 8.96-49.728 17.92-53.312 26.88-3.136 8.064-28.16 102.08-38.464 141.952l-0.448 2.24v2.24s-0.896 5.76-4.032 8.064c-3.2 2.24-10.752 2.24-19.712 0-9.408-2.688-16.128-6.272-17.92-10.304a11.776 11.776 0 0 1 0-8.96l0.896-1.344 0.448-2.688c1.792-6.72 36.736-150.464 43.84-183.168 15.232-10.752 74.816-29.12 88.256-29.568h31.36l-9.856-29.504a2704.128 2704.128 0 0 0-25.088-70.784 481.28 481.28 0 0 1-9.856-27.776l-6.272-18.304-19.712 3.136c-9.856 2.24-16.128 8.96-26.88 20.096-6.272 6.72-24.576 26.88-32.192 27.328-23.744-6.272-97.216-21.952-119.552-26.88l-6.272-1.28c-2.24-0.512-13.888-4.48-17.92-11.264-0.896-1.28-2.688-3.968-0.448-11.136 1.792-7.168 4.928-8.96 5.76-9.408 5.888-3.2 15.744-1.344 20.16 0 87.808 29.056 101.248 18.816 108.416 13.44 4.48-3.584 8.96-8.96 15.68-17.024 16.512-19.712 47.424-56.896 83.2-64.96a242.88 242.88 0 0 1 147.84 14.784c28.672 14.336 76.992 99.84 95.36 132.544 2.688 4.48 4.928 8.512 6.72 12.096 4.48 7.616 1.792 17.92-6.272 22.4a15.168 15.168 0 0 1-12.544 1.28 18.56 18.56 0 0 1-9.856-7.552l-1.28-2.24c-22.4-30.912-43.52-63.168-62.72-96.256-14.336-24.64-36.736-34.56-56-24.192-16.128 8.512-19.712 24.192 0.448 91.776l0.448 1.344c14.336 39.872 30.464 87.744 32.256 98.048v4.032l2.24 4.48c5.376 11.648 9.408 23.744 12.992 34.496 7.168 21.504 12.544 37.12 26.432 44.352 9.792 5.376 20.544 11.2 112.832-39.424a31.36 31.36 0 0 1 18.752 2.24c1.344 0.896 5.376 3.584 7.68 12.992 4.48 20.608-13.44 27.776-21.12 29.568l-3.52 0.896zM325.504 253.44a97.152 97.152 0 0 0 93.568 122.24c43.008 0 82.432-28.672 93.568-72.128A97.472 97.472 0 0 0 444.16 184.96a96.896 96.896 0 0 0-118.656 68.48z m143.744 38.464a52.224 52.224 0 0 1-95.36 12.992 52.032 52.032 0 0 1 58.24-76.544c28.16 7.168 44.736 35.84 37.12 63.552z" fill="#000000"/>
</g>
</svg>