<svg width="226" height="46" viewBox="0 0 226 46" fill="none" xmlns="http://www.w3.org/2000/svg">
<path d="M116.241 46C113.723 46 111.549 45.5353 109.72 44.6058C107.921 43.6764 106.527 42.3572 105.538 40.6482C104.548 38.9392 104.054 36.9154 104.054 34.5768C104.054 32.2981 104.518 30.3043 105.448 28.5953C106.407 26.8864 107.727 25.5372 109.406 24.5477C111.085 23.5583 113.003 23.0636 115.162 23.0636C116.721 23.0636 118.13 23.3335 119.39 23.8731C120.649 24.3828 121.713 25.1174 122.583 26.0768C123.482 27.0363 124.172 28.2056 124.651 29.5847C125.131 30.9339 125.371 32.478 125.371 34.217C125.371 34.7567 125.176 35.1764 124.786 35.4762C124.427 35.7461 123.902 35.881 123.212 35.881H108.821V32.553H121.189L120.469 33.2276C120.469 31.8784 120.259 30.7541 119.839 29.8546C119.45 28.9551 118.88 28.2655 118.13 27.7858C117.411 27.3061 116.496 27.0662 115.387 27.0662C114.158 27.0662 113.108 27.3511 112.239 27.9207C111.399 28.4904 110.74 29.2999 110.26 30.3493C109.81 31.3687 109.585 32.598 109.585 34.0371V34.3519C109.585 36.7805 110.155 38.5944 111.294 39.7937C112.434 40.963 114.113 41.5476 116.331 41.5476C117.081 41.5476 117.935 41.4577 118.895 41.2778C119.884 41.0679 120.799 40.7381 121.638 40.2884C122.298 39.9286 122.868 39.7787 123.347 39.8387C123.857 39.8986 124.247 40.0935 124.517 40.4233C124.816 40.7231 124.996 41.1129 125.056 41.5926C125.116 42.0423 125.026 42.4921 124.786 42.9418C124.547 43.3915 124.142 43.7813 123.572 44.1111C122.523 44.7707 121.323 45.2504 119.974 45.5503C118.655 45.8501 117.411 46 116.241 46Z" fill="url(#paint0_linear_592_128)"/>
<path d="M90.4295 46C87.9109 46 85.7372 45.5353 83.9083 44.6058C82.1094 43.6764 80.7152 42.3572 79.7258 40.6482C78.7364 38.9392 78.2417 36.9154 78.2417 34.5768C78.2417 32.2981 78.7064 30.3043 79.6359 28.5953C80.5953 26.8864 81.9145 25.5372 83.5935 24.5477C85.2725 23.5583 87.1914 23.0636 89.3501 23.0636C90.9092 23.0636 92.3183 23.3335 93.5776 23.8731C94.8368 24.3828 95.9012 25.1174 96.7707 26.0768C97.6701 27.0363 98.3597 28.2056 98.8394 29.5847C99.3192 30.9339 99.559 32.478 99.559 34.217C99.559 34.7567 99.3641 35.1764 98.9744 35.4762C98.6146 35.7461 98.0899 35.881 97.4003 35.881H83.0089V32.553H95.3765L94.6569 33.2276C94.6569 31.8784 94.4471 30.7541 94.0273 29.8546C93.6375 28.9551 93.0679 28.2655 92.3183 27.7858C91.5988 27.3061 90.6843 27.0662 89.575 27.0662C88.3457 27.0662 87.2963 27.3511 86.4268 27.9207C85.5873 28.4904 84.9277 29.2999 84.448 30.3493C83.9983 31.3687 83.7734 32.598 83.7734 34.0371V34.3519C83.7734 36.7805 84.3431 38.5944 85.4824 39.7937C86.6217 40.963 88.3007 41.5476 90.5194 41.5476C91.2689 41.5476 92.1234 41.4577 93.0829 41.2778C94.0723 41.0679 94.9867 40.7381 95.8262 40.2884C96.4858 39.9286 97.0555 39.7787 97.5352 39.8387C98.0449 39.8986 98.4347 40.0935 98.7045 40.4233C99.0043 40.7231 99.1842 41.1129 99.2442 41.5926C99.3042 42.0423 99.2142 42.4921 98.9744 42.9418C98.7345 43.3915 98.3297 43.7813 97.7601 44.1111C96.7107 44.7707 95.5114 45.2504 94.1622 45.5503C92.843 45.8501 91.5988 46 90.4295 46Z" fill="url(#paint1_linear_592_128)"/>
<path d="M63.7386 45.9099C62.959 45.9099 62.2695 45.715 61.6698 45.3253C61.1002 44.9055 60.6354 44.2759 60.2756 43.4364L53.2148 27.0661C52.915 26.3765 52.8101 25.7469 52.9 25.1772C52.99 24.5776 53.2748 24.0979 53.7545 23.7381C54.2342 23.3483 54.8938 23.1534 55.7333 23.1534C56.4529 23.1534 57.0376 23.3183 57.4873 23.6481C57.937 23.978 58.3268 24.6076 58.6566 25.537L64.5481 40.2882H63.1989L69.2703 25.4921C69.6301 24.6226 70.0348 24.0229 70.4846 23.6931C70.9343 23.3333 71.5489 23.1534 72.3285 23.1534C73.0181 23.1534 73.5577 23.3483 73.9475 23.7381C74.3673 24.0979 74.6221 24.5626 74.7121 25.1323C74.802 25.7019 74.6971 26.3316 74.3972 27.0211L67.2015 43.4364C66.8417 44.2759 66.377 44.9055 65.8074 45.3253C65.2377 45.715 64.5481 45.9099 63.7386 45.9099Z" fill="url(#paint2_linear_592_128)"/>
<path d="M37.9072 46C35.6286 46 33.6348 45.5353 31.9258 44.6058C30.2468 43.6764 28.9276 42.3572 27.9681 40.6482C27.0387 38.9092 26.574 36.8704 26.574 34.5318C26.574 32.7629 26.8288 31.1888 27.3385 29.8096C27.8782 28.4005 28.6427 27.1862 29.6322 26.1668C30.6515 25.1474 31.8508 24.3828 33.23 23.8731C34.6392 23.3335 36.1983 23.0636 37.9072 23.0636C40.2159 23.0636 42.2097 23.5284 43.8887 24.4578C45.5977 25.3872 46.9169 26.7215 47.8463 28.4604C48.8058 30.1694 49.2855 32.1932 49.2855 34.5318C49.2855 36.3008 49.0156 37.8898 48.4759 39.299C47.9663 40.7081 47.2017 41.9224 46.1823 42.9418C45.1929 43.9312 43.9936 44.6958 42.5845 45.2354C41.2053 45.7451 39.6462 46 37.9072 46ZM37.9072 41.5476C38.9866 41.5476 39.931 41.2928 40.7406 40.7831C41.5801 40.2434 42.2247 39.4639 42.6744 38.4445C43.1241 37.3951 43.349 36.0909 43.349 34.5318C43.349 32.1632 42.8543 30.4093 41.8649 29.2699C40.8755 28.1306 39.5563 27.561 37.9072 27.561C36.8579 27.561 35.9134 27.8158 35.0739 28.3255C34.2644 28.8352 33.6348 29.6147 33.185 30.6641C32.7353 31.6835 32.5104 32.9727 32.5104 34.5318C32.5104 36.8404 33.0052 38.5944 33.9946 39.7937C34.984 40.963 36.2882 41.5476 37.9072 41.5476Z" fill="url(#paint3_linear_592_128)"/>
<path d="M2.96823 45.9096C2.0088 45.9096 1.27424 45.6547 0.764545 45.145C0.254848 44.6353 0 43.8858 0 42.8964V16.4521C0 15.4627 0.254848 14.7281 0.764545 14.2484C1.27424 13.7387 2.0088 13.4839 2.96823 13.4839C3.89768 13.4839 4.61725 13.7387 5.12695 14.2484C5.63665 14.7281 5.89149 15.4627 5.89149 16.4521V27.8753H5.26187C5.95146 26.3162 6.98584 25.1319 8.36502 24.3224C9.7442 23.4829 11.3183 23.0632 13.0872 23.0632C14.8562 23.0632 16.3103 23.408 17.4496 24.0975C18.5889 24.7572 19.4434 25.7616 20.0131 27.1108C20.5828 28.43 20.8676 30.124 20.8676 32.1927V42.8964C20.8676 43.8858 20.6127 44.6353 20.103 45.145C19.5933 45.6547 18.8738 45.9096 17.9443 45.9096C16.9849 45.9096 16.2503 45.6547 15.7406 45.145C15.2309 44.6353 14.9761 43.8858 14.9761 42.8964V32.4626C14.9761 30.7836 14.6613 29.5693 14.0317 28.8197C13.402 28.0702 12.4426 27.6954 11.1534 27.6954C9.56431 27.6954 8.29007 28.2051 7.33064 29.2245C6.37121 30.2139 5.89149 31.5331 5.89149 33.1821V42.8964C5.89149 44.9052 4.91707 45.9096 2.96823 45.9096Z" fill="url(#paint4_linear_592_128)"/>
<g filter="url(#filter0_d_592_128)">
<path d="M131.419 6.07803C131.419 4.93036 132.632 4 134.129 4L217.938 4C219.435 4 220.648 4.93037 220.648 6.07803V16.4682C220.648 17.6158 219.435 18.5462 217.938 18.5462H134.129C132.632 18.5462 131.419 17.6158 131.419 16.4682V6.07803Z" fill="url(#paint5_linear_592_128)"/>
</g>
<path d="M134.129 4.4H217.938C218.606 4.4 219.196 4.60808 219.611 4.92605C220.025 5.24371 220.248 5.65452 220.248 6.07803V16.4682C220.248 16.8917 220.025 17.3025 219.611 17.6202C219.196 17.9381 218.606 18.1462 217.938 18.1462H134.129C133.461 18.1462 132.871 17.9381 132.456 17.6201C132.042 17.3025 131.819 16.8917 131.819 16.4682V6.07803C131.819 5.65452 132.042 5.24371 132.456 4.92605C132.871 4.60808 133.461 4.4 134.129 4.4Z" stroke="url(#paint6_linear_592_128)" stroke-width="0.8"/>
<path d="M213.49 15.7895C212.769 15.7895 212.147 15.6549 211.626 15.3855C211.105 15.1161 210.701 14.7338 210.414 14.2385C210.136 13.7433 209.997 13.1567 209.997 12.479C209.997 11.8186 210.132 11.2408 210.401 10.7455C210.679 10.2502 211.057 9.86356 211.535 9.58551C212.021 9.29877 212.573 9.1554 213.19 9.1554C213.642 9.1554 214.046 9.22925 214.402 9.37697C214.767 9.52468 215.076 9.73757 215.328 10.0156C215.588 10.2937 215.784 10.6325 215.914 11.0322C216.053 11.4233 216.123 11.8664 216.123 12.3617C216.123 12.5181 216.066 12.6397 215.953 12.7266C215.849 12.8048 215.697 12.8439 215.497 12.8439H211.313V11.9055H214.976L214.767 12.101C214.767 11.7013 214.706 11.3668 214.585 11.0974C214.472 10.8281 214.302 10.6239 214.076 10.4848C213.859 10.3371 213.585 10.2633 213.255 10.2633C212.89 10.2633 212.577 10.3501 212.317 10.5239C212.065 10.689 211.869 10.928 211.73 11.2408C211.6 11.5449 211.535 11.9098 211.535 12.3356V12.4269C211.535 13.1394 211.7 13.6737 212.03 14.03C212.369 14.3776 212.864 14.5513 213.516 14.5513C213.742 14.5513 213.994 14.5253 214.272 14.4731C214.559 14.4123 214.828 14.3124 215.08 14.1734C215.262 14.0691 215.423 14.0257 215.562 14.043C215.701 14.0517 215.81 14.0995 215.888 14.1864C215.975 14.2733 216.027 14.3819 216.044 14.5122C216.062 14.6339 216.036 14.7599 215.966 14.8902C215.905 15.0206 215.797 15.1335 215.64 15.2291C215.336 15.4203 214.984 15.5636 214.585 15.6592C214.194 15.7461 213.829 15.7895 213.49 15.7895Z" fill="url(#paint7_linear_592_128)"/>
<path d="M207.273 15.7895C206.604 15.7895 206.022 15.6549 205.527 15.3855C205.032 15.1074 204.649 14.7164 204.38 14.2125C204.111 13.7085 203.976 13.1176 203.976 12.4399C203.976 11.9272 204.05 11.471 204.197 11.0713C204.354 10.663 204.575 10.3197 204.862 10.0417C205.149 9.75494 205.496 9.53772 205.905 9.39C206.313 9.2336 206.769 9.1554 207.273 9.1554C207.56 9.1554 207.869 9.1945 208.199 9.2727C208.538 9.3509 208.855 9.48124 209.15 9.66371C209.289 9.7506 209.38 9.85487 209.424 9.97652C209.467 10.0982 209.476 10.2242 209.45 10.3545C209.424 10.4761 209.367 10.5848 209.281 10.6803C209.202 10.7672 209.102 10.8237 208.981 10.8498C208.859 10.8672 208.724 10.8367 208.577 10.7585C208.386 10.6456 208.19 10.563 207.99 10.5109C207.79 10.4501 207.599 10.4197 207.417 10.4197C207.13 10.4197 206.878 10.4675 206.661 10.563C206.444 10.6499 206.257 10.7803 206.1 10.954C205.953 11.1191 205.84 11.3277 205.761 11.5797C205.683 11.8316 205.644 12.1227 205.644 12.4529C205.644 13.0959 205.796 13.6042 206.1 13.9779C206.413 14.3428 206.852 14.5253 207.417 14.5253C207.599 14.5253 207.786 14.4992 207.977 14.4471C208.177 14.3949 208.377 14.3124 208.577 14.1994C208.724 14.1212 208.855 14.0952 208.968 14.1212C209.089 14.1473 209.189 14.2081 209.268 14.3037C209.346 14.3906 209.393 14.4992 209.411 14.6295C209.428 14.7512 209.411 14.8728 209.359 14.9945C209.315 15.1161 209.228 15.2161 209.098 15.2943C208.811 15.468 208.507 15.594 208.186 15.6722C207.864 15.7504 207.56 15.7895 207.273 15.7895Z" fill="url(#paint8_linear_592_128)"/>
<path d="M197.512 15.7635C197.252 15.7635 197.052 15.694 196.913 15.5549C196.774 15.4072 196.704 15.1987 196.704 14.9293V10.0026C196.704 9.73322 196.774 9.52903 196.913 9.39C197.052 9.25098 197.247 9.18146 197.499 9.18146C197.751 9.18146 197.947 9.25098 198.086 9.39C198.225 9.52903 198.294 9.73322 198.294 10.0026V10.8889L198.151 10.563C198.342 10.1025 198.638 9.75494 199.037 9.52034C199.446 9.27704 199.906 9.1554 200.419 9.1554C200.932 9.1554 201.353 9.25098 201.683 9.44214C202.013 9.6333 202.261 9.92438 202.426 10.3154C202.591 10.6977 202.674 11.1843 202.674 11.7752V14.9293C202.674 15.1987 202.604 15.4072 202.465 15.5549C202.326 15.694 202.126 15.7635 201.866 15.7635C201.605 15.7635 201.401 15.694 201.253 15.5549C201.114 15.4072 201.045 15.1987 201.045 14.9293V11.8534C201.045 11.3581 200.949 10.9975 200.758 10.7716C200.575 10.5457 200.289 10.4327 199.898 10.4327C199.42 10.4327 199.037 10.5848 198.751 10.8889C198.473 11.1843 198.334 11.5797 198.334 12.0749V14.9293C198.334 15.4854 198.06 15.7635 197.512 15.7635Z" fill="url(#paint9_linear_592_128)"/>
<path d="M191.674 15.7895C191.214 15.7895 190.801 15.7027 190.436 15.5289C190.08 15.3464 189.798 15.1031 189.589 14.799C189.389 14.4949 189.289 14.1516 189.289 13.7693C189.289 13.3001 189.411 12.9308 189.654 12.6615C189.898 12.3834 190.293 12.1836 190.84 12.0619C191.388 11.9403 192.122 11.8794 193.043 11.8794H193.695V12.8179H193.056C192.517 12.8179 192.087 12.8439 191.766 12.8961C191.444 12.9482 191.214 13.0394 191.075 13.1698C190.945 13.2914 190.879 13.4652 190.879 13.6911C190.879 13.9779 190.979 14.2125 191.179 14.3949C191.379 14.5774 191.657 14.6686 192.013 14.6686C192.3 14.6686 192.552 14.6035 192.769 14.4731C192.995 14.3341 193.173 14.1473 193.304 13.9127C193.434 13.6781 193.499 13.4087 193.499 13.1046V11.6057C193.499 11.1713 193.404 10.8585 193.212 10.6673C193.021 10.4761 192.7 10.3806 192.248 10.3806C191.996 10.3806 191.722 10.411 191.427 10.4718C191.14 10.5326 190.836 10.6369 190.514 10.7846C190.349 10.8628 190.202 10.8845 190.071 10.8498C189.95 10.815 189.854 10.7455 189.785 10.6412C189.715 10.5283 189.68 10.4066 189.68 10.2763C189.68 10.146 189.715 10.02 189.785 9.89832C189.854 9.76798 189.971 9.6724 190.136 9.61157C190.536 9.44648 190.919 9.32918 191.283 9.25966C191.657 9.19015 191.996 9.1554 192.3 9.1554C192.926 9.1554 193.438 9.25098 193.838 9.44214C194.246 9.6333 194.551 9.92438 194.75 10.3154C194.95 10.6977 195.05 11.193 195.05 11.8012V14.9293C195.05 15.1987 194.985 15.4072 194.855 15.5549C194.724 15.694 194.538 15.7635 194.294 15.7635C194.051 15.7635 193.86 15.694 193.721 15.5549C193.59 15.4072 193.525 15.1987 193.525 14.9293V14.3037H193.63C193.569 14.6078 193.447 14.8728 193.265 15.0988C193.091 15.316 192.869 15.4854 192.6 15.6071C192.331 15.7287 192.022 15.7895 191.674 15.7895Z" fill="url(#paint10_linear_592_128)"/>
<path d="M184.211 15.7896C183.655 15.7896 183.164 15.6549 182.739 15.3855C182.322 15.1162 181.996 14.7338 181.761 14.2386C181.526 13.7346 181.409 13.1437 181.409 12.466C181.409 11.7795 181.526 11.193 181.761 10.7064C181.996 10.2111 182.322 9.82883 182.739 9.55946C183.164 9.2901 183.655 9.15542 184.211 9.15542C184.741 9.15542 185.202 9.28576 185.593 9.54643C185.993 9.8071 186.262 10.1503 186.401 10.5761H186.258V7.18733C186.258 6.91797 186.327 6.71378 186.466 6.57475C186.605 6.43572 186.805 6.36621 187.066 6.36621C187.326 6.36621 187.526 6.43572 187.665 6.57475C187.813 6.71378 187.887 6.91797 187.887 7.18733V14.9293C187.887 15.1987 187.817 15.4072 187.678 15.555C187.539 15.694 187.34 15.7635 187.079 15.7635C186.818 15.7635 186.618 15.694 186.479 15.555C186.34 15.4072 186.271 15.1987 186.271 14.9293V13.9127L186.414 14.3037C186.284 14.7556 186.019 15.1162 185.619 15.3855C185.219 15.6549 184.75 15.7896 184.211 15.7896ZM184.668 14.5514C184.989 14.5514 185.271 14.4732 185.515 14.3168C185.758 14.1604 185.945 13.9301 186.075 13.626C186.214 13.3132 186.284 12.9265 186.284 12.466C186.284 11.7708 186.136 11.2538 185.841 10.915C185.545 10.5674 185.154 10.3936 184.668 10.3936C184.346 10.3936 184.064 10.4718 183.82 10.6282C183.577 10.7759 183.386 11.0062 183.247 11.319C183.117 11.6231 183.051 12.0055 183.051 12.466C183.051 13.1524 183.199 13.6738 183.495 14.03C183.79 14.3776 184.181 14.5514 184.668 14.5514Z" fill="url(#paint11_linear_592_128)"/>
<path d="M174.945 15.7635C174.685 15.7635 174.485 15.694 174.346 15.5549C174.207 15.4072 174.137 15.1987 174.137 14.9293V10.0026C174.137 9.73322 174.207 9.52903 174.346 9.39C174.485 9.25098 174.68 9.18146 174.932 9.18146C175.184 9.18146 175.38 9.25098 175.519 9.39C175.658 9.52903 175.727 9.73322 175.727 10.0026V10.8889L175.584 10.563C175.775 10.1025 176.071 9.75494 176.47 9.52034C176.879 9.27704 177.339 9.1554 177.852 9.1554C178.364 9.1554 178.786 9.25098 179.116 9.44214C179.446 9.6333 179.694 9.92438 179.859 10.3154C180.024 10.6977 180.107 11.1843 180.107 11.7752V14.9293C180.107 15.1987 180.037 15.4072 179.898 15.5549C179.759 15.694 179.559 15.7635 179.299 15.7635C179.038 15.7635 178.834 15.694 178.686 15.5549C178.547 15.4072 178.477 15.1987 178.477 14.9293V11.8534C178.477 11.3581 178.382 10.9975 178.191 10.7716C178.008 10.5457 177.721 10.4327 177.33 10.4327C176.853 10.4327 176.47 10.5848 176.183 10.8889C175.905 11.1843 175.766 11.5797 175.766 12.0749V14.9293C175.766 15.4854 175.493 15.7635 174.945 15.7635Z" fill="url(#paint12_linear_592_128)"/>
<path d="M170.214 15.7895C169.493 15.7895 168.872 15.6549 168.35 15.3855C167.829 15.1161 167.425 14.7338 167.138 14.2385C166.86 13.7433 166.721 13.1567 166.721 12.479C166.721 11.8186 166.856 11.2408 167.125 10.7455C167.403 10.2502 167.781 9.86356 168.259 9.58551C168.746 9.29877 169.298 9.1554 169.914 9.1554C170.366 9.1554 170.77 9.22925 171.127 9.37697C171.492 9.52468 171.8 9.73757 172.052 10.0156C172.313 10.2937 172.508 10.6325 172.638 11.0322C172.778 11.4233 172.847 11.8664 172.847 12.3617C172.847 12.5181 172.791 12.6397 172.678 12.7266C172.573 12.8048 172.421 12.8439 172.221 12.8439H168.038V11.9055H171.7L171.492 12.101C171.492 11.7013 171.431 11.3668 171.309 11.0974C171.196 10.8281 171.027 10.6239 170.801 10.4848C170.584 10.3371 170.31 10.2633 169.98 10.2633C169.615 10.2633 169.302 10.3501 169.041 10.5239C168.789 10.689 168.594 10.928 168.455 11.2408C168.324 11.5449 168.259 11.9098 168.259 12.3356V12.4269C168.259 13.1394 168.424 13.6737 168.754 14.03C169.093 14.3776 169.589 14.5513 170.24 14.5513C170.466 14.5513 170.718 14.5253 170.996 14.4731C171.283 14.4123 171.552 14.3124 171.804 14.1734C171.987 14.0691 172.148 14.0257 172.287 14.043C172.426 14.0517 172.534 14.0995 172.612 14.1864C172.699 14.2733 172.751 14.3819 172.769 14.5122C172.786 14.6339 172.76 14.7599 172.691 14.8902C172.63 15.0206 172.521 15.1335 172.365 15.2291C172.061 15.4203 171.709 15.5636 171.309 15.6592C170.918 15.7461 170.553 15.7895 170.214 15.7895Z" fill="url(#paint13_linear_592_128)"/>
<path d="M165.054 15.7895C164.489 15.7895 164.016 15.6939 163.634 15.5028C163.26 15.3116 162.982 15.0335 162.799 14.6686C162.617 14.295 162.526 13.8344 162.526 13.287V10.5109H161.848C161.639 10.5109 161.479 10.4587 161.366 10.3545C161.253 10.2415 161.196 10.0894 161.196 9.89827C161.196 9.69842 161.253 9.54636 161.366 9.44209C161.479 9.33783 161.639 9.28569 161.848 9.28569H162.526V8.09963C162.526 7.83026 162.595 7.62607 162.734 7.48704C162.882 7.34802 163.086 7.2785 163.347 7.2785C163.608 7.2785 163.807 7.34802 163.946 7.48704C164.085 7.62607 164.155 7.83026 164.155 8.09963V9.28569H165.537C165.745 9.28569 165.906 9.33783 166.019 9.44209C166.132 9.54636 166.188 9.69842 166.188 9.89827C166.188 10.0894 166.132 10.2415 166.019 10.3545C165.906 10.4587 165.745 10.5109 165.537 10.5109H164.155V13.1958C164.155 13.6129 164.246 13.9257 164.429 14.1342C164.611 14.3428 164.907 14.447 165.315 14.447C165.463 14.447 165.593 14.434 165.706 14.4079C165.819 14.3819 165.919 14.3645 166.006 14.3558C166.11 14.3471 166.197 14.3819 166.266 14.4601C166.336 14.5296 166.371 14.6773 166.371 14.9032C166.371 15.077 166.34 15.2334 166.279 15.3724C166.227 15.5028 166.127 15.594 165.98 15.6461C165.867 15.6809 165.719 15.7113 165.537 15.7374C165.354 15.7721 165.193 15.7895 165.054 15.7895Z" fill="url(#paint14_linear_592_128)"/>
<path d="M159.337 15.7895C158.772 15.7895 158.299 15.6939 157.917 15.5028C157.543 15.3116 157.265 15.0335 157.082 14.6686C156.9 14.295 156.809 13.8344 156.809 13.287V10.5109H156.131C155.922 10.5109 155.762 10.4587 155.649 10.3545C155.536 10.2415 155.479 10.0894 155.479 9.89827C155.479 9.69842 155.536 9.54636 155.649 9.44209C155.762 9.33783 155.922 9.28569 156.131 9.28569H156.809V8.09963C156.809 7.83026 156.878 7.62607 157.017 7.48704C157.165 7.34802 157.369 7.2785 157.63 7.2785C157.89 7.2785 158.09 7.34802 158.229 7.48704C158.368 7.62607 158.438 7.83026 158.438 8.09963V9.28569H159.819C160.028 9.28569 160.189 9.33783 160.302 9.44209C160.415 9.54636 160.471 9.69842 160.471 9.89827C160.471 10.0894 160.415 10.2415 160.302 10.3545C160.189 10.4587 160.028 10.5109 159.819 10.5109H158.438V13.1958C158.438 13.6129 158.529 13.9257 158.712 14.1342C158.894 14.3428 159.19 14.447 159.598 14.447C159.746 14.447 159.876 14.434 159.989 14.4079C160.102 14.3819 160.202 14.3645 160.289 14.3558C160.393 14.3471 160.48 14.3819 160.549 14.4601C160.619 14.5296 160.654 14.6773 160.654 14.9032C160.654 15.077 160.623 15.2334 160.562 15.3724C160.51 15.5028 160.41 15.594 160.263 15.6461C160.15 15.6809 160.002 15.7113 159.819 15.7374C159.637 15.7721 159.476 15.7895 159.337 15.7895Z" fill="url(#paint15_linear_592_128)"/>
<path d="M151.388 15.7895C150.927 15.7895 150.515 15.7027 150.15 15.5289C149.793 15.3464 149.511 15.1031 149.302 14.799C149.103 14.4949 149.003 14.1516 149.003 13.7693C149.003 13.3001 149.124 12.9308 149.368 12.6615C149.611 12.3834 150.006 12.1836 150.554 12.0619C151.101 11.9403 151.835 11.8794 152.756 11.8794H153.408V12.8179H152.769C152.231 12.8179 151.801 12.8439 151.479 12.8961C151.158 12.9482 150.927 13.0394 150.788 13.1698C150.658 13.2914 150.593 13.4652 150.593 13.6911C150.593 13.9779 150.693 14.2125 150.893 14.3949C151.092 14.5774 151.37 14.6686 151.727 14.6686C152.013 14.6686 152.265 14.6035 152.483 14.4731C152.709 14.3341 152.887 14.1473 153.017 13.9127C153.147 13.6781 153.213 13.4087 153.213 13.1046V11.6057C153.213 11.1713 153.117 10.8585 152.926 10.6673C152.735 10.4761 152.413 10.3806 151.961 10.3806C151.709 10.3806 151.436 10.411 151.14 10.4718C150.853 10.5326 150.549 10.6369 150.228 10.7846C150.063 10.8628 149.915 10.8845 149.785 10.8498C149.663 10.815 149.567 10.7455 149.498 10.6412C149.428 10.5283 149.394 10.4066 149.394 10.2763C149.394 10.146 149.428 10.02 149.498 9.89832C149.567 9.76798 149.685 9.6724 149.85 9.61157C150.25 9.44648 150.632 9.32918 150.997 9.25966C151.37 9.19015 151.709 9.1554 152.013 9.1554C152.639 9.1554 153.152 9.25098 153.551 9.44214C153.96 9.6333 154.264 9.92438 154.464 10.3154C154.664 10.6977 154.764 11.193 154.764 11.8012V14.9293C154.764 15.1987 154.698 15.4072 154.568 15.5549C154.438 15.694 154.251 15.7635 154.008 15.7635C153.764 15.7635 153.573 15.694 153.434 15.5549C153.304 15.4072 153.239 15.1987 153.239 14.9293V14.3037H153.343C153.282 14.6078 153.16 14.8728 152.978 15.0988C152.804 15.316 152.583 15.4854 152.313 15.6071C152.044 15.7287 151.735 15.7895 151.388 15.7895Z" fill="url(#paint16_linear_592_128)"/>
<path d="M144.236 12.8178C144.045 12.8178 143.885 12.757 143.754 12.6353C143.633 12.505 143.572 12.3486 143.572 12.1661C143.572 11.975 143.633 11.8186 143.754 11.6969C143.885 11.5753 144.045 11.5144 144.236 11.5144H147.013C147.195 11.5144 147.347 11.5753 147.469 11.6969C147.599 11.8186 147.664 11.975 147.664 12.1661C147.664 12.3486 147.599 12.505 147.469 12.6353C147.347 12.757 147.195 12.8178 147.013 12.8178H144.236Z" fill="url(#paint17_linear_592_128)"/>
<path d="M139.549 15.7895C138.828 15.7895 138.207 15.6549 137.686 15.3855C137.164 15.1161 136.76 14.7338 136.473 14.2385C136.195 13.7433 136.056 13.1567 136.056 12.479C136.056 11.8186 136.191 11.2408 136.46 10.7455C136.738 10.2502 137.116 9.86356 137.594 9.58551C138.081 9.29877 138.633 9.1554 139.25 9.1554C139.701 9.1554 140.106 9.22925 140.462 9.37697C140.827 9.52468 141.135 9.73757 141.387 10.0156C141.648 10.2937 141.843 10.6325 141.974 11.0322C142.113 11.4233 142.182 11.8664 142.182 12.3617C142.182 12.5181 142.126 12.6397 142.013 12.7266C141.909 12.8048 141.756 12.8439 141.557 12.8439H137.373V11.9055H141.035L140.827 12.101C140.827 11.7013 140.766 11.3668 140.644 11.0974C140.531 10.8281 140.362 10.6239 140.136 10.4848C139.919 10.3371 139.645 10.2633 139.315 10.2633C138.95 10.2633 138.637 10.3501 138.376 10.5239C138.124 10.689 137.929 10.928 137.79 11.2408C137.66 11.5449 137.594 11.9098 137.594 12.3356V12.4269C137.594 13.1394 137.759 13.6737 138.09 14.03C138.429 14.3776 138.924 14.5513 139.575 14.5513C139.801 14.5513 140.053 14.5253 140.331 14.4731C140.618 14.4123 140.888 14.3124 141.14 14.1734C141.322 14.0691 141.483 14.0257 141.622 14.043C141.761 14.0517 141.869 14.0995 141.948 14.1864C142.035 14.2733 142.087 14.3819 142.104 14.5122C142.121 14.6339 142.095 14.7599 142.026 14.8902C141.965 15.0206 141.856 15.1335 141.7 15.2291C141.396 15.4203 141.044 15.5636 140.644 15.6592C140.253 15.7461 139.888 15.7895 139.549 15.7895Z" fill="url(#paint18_linear_592_128)"/>
<defs>
<filter id="filter0_d_592_128" x="126.319" y="0.9" width="99.4288" height="24.7462" filterUnits="userSpaceOnUse" color-interpolation-filters="sRGB">
<feFlood flood-opacity="0" result="BackgroundImageFix"/>
<feColorMatrix in="SourceAlpha" type="matrix" values="0 0 0 0 0 0 0 0 0 0 0 0 0 0 0 0 0 0 127 0" result="hardAlpha"/>
<feOffset dy="2"/>
<feGaussianBlur stdDeviation="2.55"/>
<feComposite in2="hardAlpha" operator="out"/>
<feColorMatrix type="matrix" values="0 0 0 0 0 0 0 0 0 0 0 0 0 0 0 0 0 0 0.6 0"/>
<feBlend mode="normal" in2="BackgroundImageFix" result="effect1_dropShadow_592_128"/>
<feBlend mode="normal" in="SourceGraphic" in2="effect1_dropShadow_592_128" result="shape"/>
</filter>
<linearGradient id="paint0_linear_592_128" x1="114.996" y1="22.108" x2="114.996" y2="46.4778" gradientUnits="userSpaceOnUse">
<stop offset="0.0780868" stop-color="#E60079"/>
<stop offset="1" stop-color="#160B47"/>
</linearGradient>
<linearGradient id="paint1_linear_592_128" x1="89.1841" y1="22.108" x2="89.1842" y2="46.4778" gradientUnits="userSpaceOnUse">
<stop offset="0.0780868" stop-color="#E60079"/>
<stop offset="1" stop-color="#160B47"/>
</linearGradient>
<linearGradient id="paint2_linear_592_128" x1="64.0972" y1="22.2053" x2="64.0973" y2="46.3839" gradientUnits="userSpaceOnUse">
<stop offset="0.0780868" stop-color="#E60079"/>
<stop offset="1" stop-color="#160B47"/>
</linearGradient>
<linearGradient id="paint3_linear_592_128" x1="38.2321" y1="22.108" x2="38.2321" y2="46.4778" gradientUnits="userSpaceOnUse">
<stop offset="0.0780868" stop-color="#E60079"/>
<stop offset="1" stop-color="#160B47"/>
</linearGradient>
<linearGradient id="paint4_linear_592_128" x1="10.7116" y1="12.1328" x2="10.7116" y2="46.585" gradientUnits="userSpaceOnUse">
<stop offset="0.0780868" stop-color="#E60079"/>
<stop offset="1" stop-color="#160B47"/>
</linearGradient>
<linearGradient id="paint5_linear_592_128" x1="176.034" y1="4" x2="176.034" y2="18.5462" gradientUnits="userSpaceOnUse">
<stop stop-color="#FFDF00"/>
<stop offset="1" stop-color="#FF9E14"/>
</linearGradient>
<linearGradient id="paint6_linear_592_128" x1="175.575" y1="0.450884" x2="175.575" y2="19.3803" gradientUnits="userSpaceOnUse">
<stop offset="0.0776669" stop-color="white"/>
<stop offset="1" stop-color="#666666" stop-opacity="0"/>
</linearGradient>
<linearGradient id="paint7_linear_592_128" x1="213.06" y1="9.1554" x2="213.06" y2="15.7895" gradientUnits="userSpaceOnUse">
<stop stop-color="#E60079"/>
<stop offset="1" stop-color="#160B47"/>
</linearGradient>
<linearGradient id="paint8_linear_592_128" x1="206.72" y1="9.1554" x2="206.72" y2="15.7895" gradientUnits="userSpaceOnUse">
<stop stop-color="#E60079"/>
<stop offset="1" stop-color="#160B47"/>
</linearGradient>
<linearGradient id="paint9_linear_592_128" x1="199.689" y1="9.1554" x2="199.689" y2="15.7635" gradientUnits="userSpaceOnUse">
<stop stop-color="#E60079"/>
<stop offset="1" stop-color="#160B47"/>
</linearGradient>
<linearGradient id="paint10_linear_592_128" x1="192.17" y1="9.1554" x2="192.17" y2="15.7895" gradientUnits="userSpaceOnUse">
<stop stop-color="#E60079"/>
<stop offset="1" stop-color="#160B47"/>
</linearGradient>
<linearGradient id="paint11_linear_592_128" x1="184.648" y1="6.36621" x2="184.648" y2="15.7896" gradientUnits="userSpaceOnUse">
<stop stop-color="#E60079"/>
<stop offset="1" stop-color="#160B47"/>
</linearGradient>
<linearGradient id="paint12_linear_592_128" x1="177.122" y1="9.1554" x2="177.122" y2="15.7635" gradientUnits="userSpaceOnUse">
<stop stop-color="#E60079"/>
<stop offset="1" stop-color="#160B47"/>
</linearGradient>
<linearGradient id="paint13_linear_592_128" x1="169.784" y1="9.1554" x2="169.784" y2="15.7895" gradientUnits="userSpaceOnUse">
<stop stop-color="#E60079"/>
<stop offset="1" stop-color="#160B47"/>
</linearGradient>
<linearGradient id="paint14_linear_592_128" x1="163.783" y1="7.2785" x2="163.783" y2="15.7895" gradientUnits="userSpaceOnUse">
<stop stop-color="#E60079"/>
<stop offset="1" stop-color="#160B47"/>
</linearGradient>
<linearGradient id="paint15_linear_592_128" x1="158.066" y1="7.2785" x2="158.066" y2="15.7895" gradientUnits="userSpaceOnUse">
<stop stop-color="#E60079"/>
<stop offset="1" stop-color="#160B47"/>
</linearGradient>
<linearGradient id="paint16_linear_592_128" x1="151.883" y1="9.1554" x2="151.883" y2="15.7895" gradientUnits="userSpaceOnUse">
<stop stop-color="#E60079"/>
<stop offset="1" stop-color="#160B47"/>
</linearGradient>
<linearGradient id="paint17_linear_592_128" x1="145.618" y1="11.5144" x2="145.618" y2="12.8178" gradientUnits="userSpaceOnUse">
<stop stop-color="#E60079"/>
<stop offset="1" stop-color="#160B47"/>
</linearGradient>
<linearGradient id="paint18_linear_592_128" x1="139.119" y1="9.1554" x2="139.119" y2="15.7895" gradientUnits="userSpaceOnUse">
<stop stop-color="#E60079"/>
<stop offset="1" stop-color="#160B47"/>
</linearGradient>
</defs>
</svg>
