<svg id="visual" viewBox="0 0 960 340" width="960" height="340" xmlns="http://www.w3.org/2000/svg" xmlns:xlink="http://www.w3.org/1999/xlink" version="1.1"><path d="M0 246L22.8 241C45.7 236 91.3 226 137 220.8C182.7 215.7 228.3 215.3 274 227.7C319.7 240 365.3 265 411.2 274.3C457 283.7 503 277.3 548.8 272C594.7 266.7 640.3 262.3 686 253.3C731.7 244.3 777.3 230.7 823 229.2C868.7 227.7 914.3 238.3 937.2 243.7L960 249L960 341L937.2 341C914.3 341 868.7 341 823 341C777.3 341 731.7 341 686 341C640.3 341 594.7 341 548.8 341C503 341 457 341 411.2 341C365.3 341 319.7 341 274 341C228.3 341 182.7 341 137 341C91.3 341 45.7 341 22.8 341L0 341Z" fill="#FFFFFF" stroke-linecap="round" stroke-linejoin="miter"></path></svg>