<?xml version="1.0" encoding="UTF-8"?>
<svg xmlns="http://www.w3.org/2000/svg" xmlns:xlink="http://www.w3.org/1999/xlink" width="25px" height="25px" viewBox="0 0 25 25" version="1.1">
<g id="surface1">
<path style=" stroke:none;fill-rule:nonzero;fill:rgb(14.509804%,82.745098%,40%);fill-opacity:1;" d="M 13.28125 0 C 6.796875 0 1.5625 5.234375 1.5625 11.71875 C 1.5625 14.375 2.421875 16.875 4.0625 18.90625 L 2.421875 23.90625 C 2.34375 24.21875 2.421875 24.53125 2.65625 24.765625 C 2.734375 24.921875 2.96875 25 3.125 25 C 3.203125 25 3.359375 25 3.4375 24.921875 L 8.828125 22.5 C 10.234375 23.125 11.71875 23.4375 13.28125 23.4375 C 19.765625 23.4375 25 18.203125 25 11.71875 C 25 5.234375 19.765625 0 13.28125 0 Z M 13.28125 0 "/>
<path style=" stroke:none;fill-rule:nonzero;fill:rgb(100%,100%,100%);fill-opacity:1;" d="M 20.078125 16.015625 C 19.765625 16.953125 18.59375 17.734375 17.578125 17.890625 C 17.34375 17.96875 17.109375 17.96875 16.796875 17.96875 C 16.171875 17.96875 15.234375 17.8125 13.59375 17.109375 C 11.71875 16.328125 9.84375 14.6875 8.359375 12.578125 L 8.359375 12.5 C 7.890625 11.796875 7.03125 10.46875 7.03125 9.0625 C 7.03125 7.34375 7.890625 6.484375 8.203125 6.09375 C 8.59375 5.703125 9.140625 5.46875 9.765625 5.46875 C 9.921875 5.46875 10 5.46875 10.15625 5.46875 C 10.703125 5.46875 11.09375 5.625 11.484375 6.40625 L 11.796875 7.03125 C 12.03125 7.65625 12.34375 8.359375 12.421875 8.4375 C 12.65625 8.90625 12.65625 9.296875 12.421875 9.6875 C 12.34375 9.921875 12.1875 10.078125 12.03125 10.234375 C 11.953125 10.390625 11.875 10.46875 11.796875 10.46875 C 11.71875 10.546875 11.71875 10.546875 11.640625 10.625 C 11.875 11.015625 12.34375 11.71875 12.96875 12.265625 C 13.90625 13.125 14.609375 13.359375 15 13.515625 C 15.15625 13.359375 15.3125 13.046875 15.546875 12.8125 L 15.625 12.65625 C 16.015625 12.109375 16.640625 11.953125 17.265625 12.1875 C 17.578125 12.34375 19.296875 13.125 19.296875 13.125 L 19.453125 13.203125 C 19.6875 13.359375 20 13.4375 20.15625 13.75 C 20.46875 14.453125 20.234375 15.46875 20.078125 16.015625 Z M 20.078125 16.015625 "/>
</g>
</svg>
